<svg width="251" height="250" viewBox="0 0 251 250" fill="none" xmlns="http://www.w3.org/2000/svg">
<path d="M129.01 119.038L126.898 116.926L126.871 115.456C132.538 115.028 138.072 112.649 142.376 108.345C151.973 98.7484 151.973 83.1903 142.376 73.5934C132.779 63.9966 117.221 63.9966 107.624 73.5934C98.0273 83.1903 98.0273 98.7484 107.624 108.345C111.928 112.649 117.462 115.028 123.129 115.456L123.102 116.926L120.99 119.038L121.017 145.743H128.983L129.01 119.038V119.038ZM112.971 102.999C106.314 96.3425 106.314 85.5962 112.971 78.9399C119.627 72.2835 130.373 72.2835 137.029 78.9399C143.686 85.5962 143.686 96.3425 137.029 102.999C130.373 109.655 119.627 109.655 112.971 102.999Z" fill="#EEB43F"/>
<g clip-path="url(#clip0_482_1180)">
<path d="M122.783 103.819H127.216V99.3859H122.783V103.819ZM125 68.3572C112.766 68.3572 102.836 78.2864 102.836 90.5205C102.836 102.755 112.766 112.684 125 112.684C137.234 112.684 147.163 102.755 147.163 90.5205C147.163 78.2864 137.234 68.3572 125 68.3572ZM125 108.251C115.226 108.251 107.269 100.295 107.269 90.5205C107.269 80.7465 115.226 72.7898 125 72.7898C134.774 72.7898 142.73 80.7465 142.73 90.5205C142.73 100.295 134.774 108.251 125 108.251ZM125 77.2225C120.102 77.2225 116.134 81.1898 116.134 86.0879H120.567C120.567 83.6499 122.562 81.6552 125 81.6552C127.438 81.6552 129.432 83.6499 129.432 86.0879C129.432 90.5205 122.783 89.9664 122.783 97.1695H127.216C127.216 92.1828 133.865 91.6287 133.865 86.0879C133.865 81.1898 129.898 77.2225 125 77.2225Z" fill="#EEB43F"/>
</g>
<path d="M105.542 188.25C101.371 188.25 97.9961 191.662 97.9961 195.833C97.9961 200.004 101.371 203.417 105.542 203.417C109.712 203.417 113.125 200.004 113.125 195.833C113.125 191.662 109.712 188.25 105.542 188.25ZM143.458 188.25C139.287 188.25 135.913 191.662 135.913 195.833C135.913 200.004 139.287 203.417 143.458 203.417C147.629 203.417 151.041 200.004 151.041 195.833C151.041 191.662 147.629 188.25 143.458 188.25ZM109.712 169.292H137.96C140.804 169.292 143.306 167.737 144.596 165.386L158.625 138.807L151.989 135.167L137.96 161.708H111.343L95.1903 127.583H82.7915V135.167H90.3748L104.025 163.945L98.9061 173.197C96.1382 178.278 99.7782 184.458 105.542 184.458H151.041V176.875H105.542L109.712 169.292Z" fill="#EEB43F"/>
<defs>
<clipPath id="clip0_482_1180">
<rect width="53.192" height="53.192" fill="white" transform="translate(98.4038 63.9246)"/>
</clipPath>
</defs>
</svg>
